<?xml version="1.0" encoding="utf-8"?>
<svg id="Layer_1" viewBox="0 0 1024 1024" xmlns="http://www.w3.org/2000/svg">
  <defs>
    <style>
      .cls-1 {
        fill: #fff;
      }
    </style>
  </defs>
  <g transform="matrix(5.12, 0, 0, 5.12, 0, 48.947216)">
    <polygon class="cls-1" points="125.08 133.74 74.82 133.74 99.95 90.21 125.08 133.74"/>
    <polygon class="cls-1" points="175 133.74 137.5 133.74 106.16 79.45 99.96 68.7 81.25 36.31 100 3.84 118.7 36.24 124.91 46.99 175 133.74"/>
    <polygon class="cls-1" points="93.74 79.46 62.4 133.74 56.2 144.49 37.4 177.04 0 177.04 18.79 144.49 25 133.74 75.03 47.06 93.74 79.46"/>
    <polygon class="cls-1" points="200 177.04 49.82 177.04 68.62 144.49 181.21 144.49 200 177.04"/>
  </g>
</svg>